PathFileType	4	(X/Y/Z)	C:/Users/beibeiliu/ov580/test_trc/User2\sequence.34_training_dense_right.trc
DataRate	CameraRate	NumFrames	NumMarkers	Units	OrigDataRate	OrigDataStartFrame	OrigNumFrames
120	120	10	19	mm	120	1	326
Frame#	Time	ThumbCMC			ThumbMCP			ThumbIP			ThumbTip			IndexMCP			IndexPIP			IndexTip			MiddleMCP			MiddlePIP			MiddleTip			RingMCP			RingPIP			RingTip			PinkyMCP			PinkyPIP			PinkyTip			BackHand1			BackHand2			BackHand3	
		X0	Y0	Z0	X1	Y1	Z1	X2	Y2	Z2	X3	Y3	Z3	X4	Y4	Z4	X5	Y5	Z5	X6	Y6	Z6	X7	Y7	Z7	X8	Y8	Z8	X9	Y9	Z9	X10	Y10	Z10	X11	Y11	Z11	X12	Y12	Z12	X13	Y13	Z13	X14	Y14	Z14	X15	Y15	Z15	X16	Y16	Z16	X17	Y17	Z17	X18	Y18	Z18	
0	0	53.7382	-40.4711	96.5543	21.3737	-44.2882	82.96	-1.83626	-53.046	57.7694	-16.0433	-62.1627	40.0933	47.8569	-37.5123	10.5862	36.1078	-45.6046	-17.5743	25.2995	-51.8223	-38.7618	78.939	-37.6085	-2.55715	71.0669	-44.7903	-32.52	70.4398	-54.8123	-64.0808	102.94	-47.0073	-0.609753	103.736	-52.9144	-27.2712	105.677	-58.1882	-56.1487	125.375	-58.6451	13.704	133.656	-66.2936	-9.81368	141.746	-69.6364	-30.1924	109.255	-31.7708	54.096	115.566	-21.3072	86.7304	78.735	-21.0457	76.5164	
1	0.00833333	49.6986	-40.3145	91.7001	24.7979	-45.7345	82.4014	-1.2336	-53.4251	55.5166	-19.5289	-62.3927	42.8833	47.2917	-38.3025	10.1792	33.5446	-43.9413	-17.235	27.3626	-53.2948	-43.6576	74.8756	-37.5184	-1.46674	69.2147	-45.5802	-36.8656	69.0513	-54.7383	-66.5366	99.852	-46.8256	-3.25326	107.349	-53.6633	-24.8387	103.442	-58.4648	-56.249	123.959	-58.9931	14.1454	133.562	-66.2323	-11.481	137.503	-70.3211	-35.2018	108.205	-32.7305	53.8667	114.887	-22.9165	85.927	76.8228	-20.6332	72.8765	
2	0.0166667	49.6448	-40.288	96.4526	24.4495	-46.5919	79.1947	-2.83911	-53.4602	56.4308	-17.3188	-62.3557	40.324	47.3614	-38.94	9.09117	33.7568	-44.1192	-13.9811	28.6593	-53.0048	-41.359	73.9032	-39.1242	-7.07302	68.8138	-46.5829	-36.7627	69.0296	-56.6322	-68.1346	102.487	-48.0662	-2.39735	102.894	-54.2365	-25.1537	103.7	-60.4835	-55.2777	124.035	-58.553	12.1952	132.597	-67.8408	-9.20856	137.191	-70.4392	-31.3944	108.671	-33.1189	52.0299	117.128	-22.9464	81.9526	78.8959	-20.5793	73.2202	
3	0.025	48.1405	-39.6611	94.0833	22.6664	-45.2641	82.809	-2.42628	-52.9818	55.3476	-19.627	-62.3953	40.2643	45.9847	-37.7688	11.6639	32.9117	-44.5417	-17.7645	29.3692	-52.6049	-43.0538	78.4529	-38.3949	-5.32264	72.9107	-46.6828	-38.0686	71.9708	-56.7032	-66.2988	101.172	-46.2459	-3.93327	104.491	-53.2085	-29.0552	102.588	-59.7836	-55.7934	124.176	-57.9148	13.6295	131.424	-66.6369	-7.23065	139.826	-70.1917	-34.5815	106.178	-30.3971	52.4705	116.133	-23.9437	85.5081	74.5677	-21.1975	70.9153	
4	0.0333333	47.0257	-38.9619	93.079	23.5092	-45.5572	81.651	-2.51403	-52.9171	57.0496	-18.5809	-63.08	39.166	46.6593	-37.9487	7.58918	33.783	-43.0575	-14.8345	29.9995	-52.6675	-42.1557	74.4978	-37.2816	-1.27901	70.7451	-46.8602	-37.4156	69.0539	-54.7669	-64.3368	100.861	-46.7664	1.28871	101.588	-53.243	-29.492	102.81	-58.7313	-57.3014	125.524	-58.7427	16.5838	132.918	-65.9849	-11.8265	139.807	-71.1626	-34.8589	107.502	-31.3577	55.7681	119.115	-22.7215	84.7991	80.6893	-21.6751	73.7826	
5	0.0416667	47.3537	-39.7522	91.4797	25.1521	-46.4405	80.0777	0.363332	-54.4872	60.0755	-16.6891	-63.5486	41.8062	44.4275	-38.5566	9.49867	37.357	-44.8169	-18.6186	23.5968	-52.6613	-43.751	77.0777	-37.7792	-2.30636	73.9463	-45.5789	-34.8649	68.974	-54.3423	-63.0159	99.9464	-46.3442	-2.53422	105.085	-52.3593	-26.7335	100.884	-58.8417	-53.6478	127.453	-58.8419	12.9483	130.95	-65.3742	-8.81557	142.151	-69.7259	-35.856	111.223	-32.9593	52.1137	115.865	-23.9102	82.3299	79.6566	-22.0702	69.5922	
6	0.05	49.7257	-40.9424	91.465	22.2372	-45.1424	81.7876	-4.59077	-53.0787	58.0769	-20.43	-63.4709	43.0221	45.7277	-38.8362	8.56852	32.2729	-44.6972	-17.7831	29.1107	-53.7783	-44.1714	74.3418	-37.2089	-3.42389	71.6306	-45.8269	-34.9214	69.3646	-55.7161	-65.2865	104.252	-46.7761	-2.85469	106.237	-53.2622	-27.1505	104.666	-59.3452	-53.94	124.603	-58.7495	15.0478	135.27	-67.6967	-10.4936	142.228	-70.9795	-36.1195	108.363	-31.0234	54.968	114.04	-23.5928	84.711	77.5853	-22.3813	70.4666	
7	0.0583333	49.8595	-40.8424	96.0115	22.8925	-45.4744	81.3636	-2.80037	-53.3538	58.8901	-20.1863	-62.4053	41.0868	43.8211	-38.1613	8.95372	34.7568	-46.24	-19.9591	25.7984	-54.4319	-45.7377	76.2889	-39.1259	-5.34452	71.7472	-47.2767	-36.3519	71.7161	-57.9346	-69.4125	104.966	-48.462	-3.35161	107.438	-54.4475	-28.3571	102.177	-59.087	-53.8355	125.175	-58.8785	16.3892	132.068	-66.9325	-7.48434	142.99	-69.7981	-32.7897	107.319	-30.8072	50.6463	115.463	-22.9028	86.192	76.2643	-21.1959	73.7067	
8	0.0666667	51.5134	-41.5425	90.9447	23.2474	-45.7795	82.371	-0.141581	-53.7328	60.7418	-19.1299	-63.0339	44.0928	45.6879	-38.8994	7.72428	34.0772	-44.3573	-17.684	28.5648	-52.8238	-41.3071	77.5312	-38.0624	-3.82203	72.707	-47.413	-38.2314	70.2714	-55.5497	-62.9192	102.191	-46.0471	0.851225	104.388	-53.1929	-25.1424	104.215	-58.7342	-56.5257	127.057	-58.6292	14.9312	131.882	-67.0597	-10.1727	143.588	-71.478	-29.7624	112.169	-31.0802	51.8463	118.493	-24.1641	82.9581	80.3072	-22.3963	74.3448	
9	0.075	50.8589	-40.1917	96.0592	23.1292	-46.6944	81.6895	-1.14772	-53.5965	60.9317	-19.5344	-62.3337	42.4483	48.0093	-38.4086	7.17006	33.8643	-44.3457	-13.8462	26.9004	-54.4815	-43.4198	74.2327	-37.4131	-6.01845	72.4453	-47.1698	-37.9433	69.318	-55.0272	-63.8272	103.475	-46.4873	0.559809	103.619	-53.2484	-25.227	102.882	-59.0122	-54.789	129.423	-59.4733	14.9313	133.45	-67.0108	-9.46704	139.813	-69.2212	-32.4022	107.789	-33.0662	55.3206	118.409	-25.4317	81.8953	82.7619	-20.942	74.3389	
